# xmcd
#
# Track frame offsets:
#	150
#	28362
#	45152
#	62297
#	78562
#	96157
#	109397
#	128852
#	152165
#	172987
#	192685
#	214335
#	236132
#	257600
#
# Disc length: 3687 seconds
#
# Revision: 0
# Processed by: cddbd v1.4PL0 Copyright (c) Steve Scherf et al.
#
# Submitted via: MusicManager v6.1.1.0
#
DISCID=c40e650e
DTITLE=Steve Grace - Long Road To Glory
DYEAR=1900
DGENRE=country
TTITLE0=Children of the western world
TTITLE1=Big dreams
TTITLE2=Living for love
TTITLE3=Texas
TTITLE4=Long road to glory
TTITLE5=Step by step
TTITLE6=On the edge
TTITLE7=A cry in the wilderness
TTITLE8=The outlaw
TTITLE9=Song for Kerrie
TTITLE10=Lessons of the heart
TTITLE11=Song for America
TTITLE12=Liberty road 
TTITLE13=Long live your dreams
EXTD=
EXTT0=
EXTT1=
EXTT2=
EXTT3=
EXTT4=
EXTT5=
EXTT6=
EXTT7=
EXTT8=
EXTT9=
EXTT10=
EXTT11=
EXTT12=
EXTT13=
PLAYORDER=
